<svg width="464" height="172" viewBox="0 0 464 172" fill="none" xmlns="http://www.w3.org/2000/svg">
<g clip-path="url(#clip0_773_2150)">
<path d="M17.2263 154.798H42.0297V169.707H0V2.29297H39.7334V17.2016H17.2263V78.8932H33.5325V83.9386H17.2263V154.802V154.798Z" fill="white"/>
<path d="M83.1359 94.717L105.183 169.707H87.0404L79.4594 137.829L73.9466 107.784H71.8784L64.7574 169.703H45.4668L68.4339 97.6931L46.3869 32.1025H64.5294L72.1104 60.3098L77.6231 84.6181H80.1515L85.4322 32.1025H104.723L83.1359 94.709V94.717Z" fill="white"/>
<path d="M243.34 22.4747C243.34 17.4293 239.664 15.5957 230.019 15.5957C224.046 15.5957 222.67 20.6411 222.67 28.6667V137.369C222.67 153.88 227.494 156.404 232.087 156.404C238.06 156.404 240.356 147.692 240.812 133.011L241.5 105.95H244.717L245.405 133.698C245.865 155.486 239.204 171.996 225.422 171.996C211.64 171.996 205.443 164.885 205.443 145.163V30.9597C205.443 8.48495 216.697 0 230.019 0C241.96 0 247.701 7.11074 247.701 21.3282C247.701 33.025 247.241 49.0761 243.108 72.2419H225.654C241.732 37.8427 243.336 28.8984 243.336 22.4747H243.34Z" fill="white"/>
<path d="M292.259 46.7834C284.91 46.7834 276.873 58.9396 276.873 82.1014V169.707H260.795V32.1065H276.641V34.6272L271.588 69.4858L273.885 69.9452C278.709 35.546 284.45 29.8135 292.259 29.8135C299.148 29.8135 302.593 37.3796 302.593 52.5159C302.593 58.4802 301.904 73.8441 298 94.2536H280.546C293.635 66.7334 298.46 56.8702 298.46 52.7436C298.46 48.617 296.392 46.7794 292.259 46.7794V46.7834Z" fill="white"/>
<path d="M326.936 172C318.206 172 313.614 166.727 313.614 155.718V139.894C313.614 121.318 323.259 113.98 341.402 97.0101V54.5813C341.402 47.2429 339.565 45.4093 331.984 45.4093C320.043 45.4093 317.054 50.4547 317.054 58.4802C317.054 68.1117 320.959 76.5966 339.789 95.6318H317.742C313.15 84.6222 311.77 71.5512 311.77 61.0009C311.77 46.5518 323.023 29.8096 337.493 29.8096C350.815 29.8096 357.476 36.9203 357.476 48.6171V142.643C357.476 155.027 359.772 156.401 362.3 156.401C364.369 156.401 365.977 155.026 366.205 147.456L366.893 107.325H370.109L370.798 146.542C371.026 160.991 368.729 171.996 357.936 171.996C348.518 171.996 344.386 165.345 347.142 132.779L344.846 132.32C341.402 166.492 335.661 171.996 326.932 171.996L326.936 172ZM333.596 155.258C338.649 155.258 341.406 141.268 341.406 120.172V101.824C331.3 111.455 329.692 117.188 329.692 126.823V149.757C329.692 153.884 331.3 155.262 333.596 155.262V155.258Z" fill="white"/>
<path d="M399.737 25.4548V32.1061H419.947V43.8029H399.737V169.707H383.658V52.975C383.658 49.9949 383.887 46.783 384.579 43.8029H373.785V32.1061H388.023C395.372 15.1362 410.53 2.29297 425.228 2.29297H428.213V22.247C424.08 20.4134 418.107 19.0352 410.758 19.0352C404.097 19.0352 399.733 20.4094 399.733 25.4548H399.737Z" fill="white"/>
<path d="M443.14 43.803V137.373C443.14 153.884 447.272 156.408 451.177 156.408C456.689 156.408 458.526 150.676 458.986 135.308L459.674 105.954H462.89L463.578 135.999C464.038 156.408 457.838 172.004 444.748 172.004C433.034 172.004 427.065 164.893 427.065 145.171V43.803H416.5V32.1062H427.065V9.40375C432.346 8.25725 439.239 5.50483 442.912 0L445.436 0.687105L440.611 30.2726L441.759 32.1062H463.118V43.803H443.14Z" fill="white"/>
<path d="M159.682 30.0606C134.095 26.3813 108.823 54.8203 103.231 93.5818C97.6379 132.343 113.848 166.747 139.436 170.43C165.023 174.109 190.294 145.67 195.887 106.908C201.48 68.1469 185.27 33.7438 159.682 30.0606ZM140.272 167.09C122.901 164.593 113.08 133.042 118.333 96.6179C123.585 60.1973 141.928 32.6931 159.294 35.1939C176.665 37.6906 186.486 69.2415 181.233 105.666C175.981 142.087 157.638 169.591 140.272 167.09Z" fill="white"/>
<path d="M157.962 72.8809C161.276 72.8809 163.963 70.1981 163.963 66.8887C163.963 63.5793 161.276 60.8965 157.962 60.8965C154.648 60.8965 151.961 63.5793 151.961 66.8887C151.961 70.1981 154.648 72.8809 157.962 72.8809Z" fill="white"/>
<path d="M137.086 12.1686C114.655 20.6216 105.737 51.9768 117.159 82.2054C128.58 112.434 156.028 130.083 178.455 121.626C200.886 113.173 209.803 81.8179 198.382 51.5893C186.956 21.3646 159.513 3.71162 137.086 12.1686ZM177.895 120.144C158.544 127.438 133.849 109.51 122.732 80.1041C111.618 50.6984 118.291 20.9452 137.642 13.6547C156.992 6.36017 181.688 24.2888 192.805 53.6945C203.919 83.1002 197.246 112.853 177.895 120.144Z" fill="white"/>
</g>
<defs>
<clipPath id="clip0_773_2150">
<rect width="463.603" height="172" fill="white"/>
</clipPath>
</defs>
</svg>
