<svg width="30" height="26" viewBox="0 0 30 26" fill="none" xmlns="http://www.w3.org/2000/svg">
<circle cx="15" cy="13" r="4" fill="#F0FFA5"/>
<path d="M25.9908 19.4792C25.2815 20.7078 23.5255 21.4102 20.9 21.2526C18.3246 21.098 15.1506 20.1145 12.0153 18.3044C8.88 16.4942 6.44129 14.2372 5.01971 12.0841C3.57049 9.88913 3.30077 8.01725 4.01008 6.78868C4.7194 5.56011 6.47535 4.85775 9.10084 5.01534C11.6763 5.16993 14.8503 6.15339 17.9856 7.96355C21.1209 9.77371 23.5596 12.0308 24.9811 14.1838C26.4304 16.3788 26.7001 18.2507 25.9908 19.4792Z" stroke="#F0FFA5" stroke-width="1.5"/>
<path d="M25.9908 6.78737C25.2815 5.55879 23.5255 4.85644 20.9 5.01403C18.3246 5.16862 15.1506 6.15207 12.0153 7.96223C8.88 9.77239 6.44129 12.0294 5.01971 14.1825C3.57049 16.3775 3.30077 18.2493 4.01008 19.4779C4.7194 20.7065 6.47535 21.4088 9.10084 21.2513C11.6763 21.0967 14.8503 20.1132 17.9856 18.3031C21.1209 16.4929 23.5596 14.2358 24.9811 12.0828C26.4304 9.88782 26.7001 8.01594 25.9908 6.78737Z" stroke="#F0FFA5" stroke-width="1.5"/>
<path d="M15 0.75C13.4751 0.75 11.9242 1.90935 10.7106 4.16319C9.51345 6.38648 8.75 9.50942 8.75 13C8.75 16.4906 9.51345 19.6135 10.7106 21.8368C11.9242 24.0907 13.4751 25.25 15 25.25C16.5249 25.25 18.0758 24.0907 19.2894 21.8368C20.4866 19.6135 21.25 16.4906 21.25 13C21.25 9.50942 20.4866 6.38648 19.2894 4.16319C18.0758 1.90935 16.5249 0.75 15 0.75Z" stroke="#F0FFA5" stroke-width="1.5"/>
</svg>
